<svg xmlns="http://www.w3.org/2000/svg" viewBox="0 0 64 64" width="64" height="64">
  <defs>
    <linearGradient id="body" x1="0" y1="0" x2="0" y2="1">
      <stop offset="0%" stop-color="#2ecc71"/>
      <stop offset="100%" stop-color="#1a7a42"/>
    </linearGradient>
  </defs>
  <ellipse cx="32" cy="60" rx="12" ry="3" fill="rgba(0,0,0,0.2)"/>
  <rect x="23" y="44" width="7" height="14" rx="2" fill="#1a1b2e"/>
  <rect x="34" y="44" width="7" height="14" rx="2" fill="#1a1b2e"/>
  <rect x="22" y="54" width="9" height="5" rx="2" fill="#4a4e69"/>
  <rect x="33" y="54" width="9" height="5" rx="2" fill="#4a4e69"/>
  <rect x="19" y="24" width="26" height="22" rx="4" fill="url(#body)"/>
  <rect x="19" y="42" width="26" height="3" rx="1" fill="#1a1b2e"/>
  <rect x="13" y="26" width="7" height="18" rx="3" fill="url(#body)"/>
  <rect x="44" y="26" width="7" height="18" rx="3" fill="url(#body)"/>
  <circle cx="16" cy="46" r="3" fill="#f5cba7"/>
  <circle cx="48" cy="46" r="3" fill="#f5cba7"/>
  <!-- Spear/Lance -->
  <rect x="9" y="6" width="3" height="40" rx="1.5" fill="#a0522d" transform="rotate(-5, 10, 26)"/>
  <polygon points="8,6 12,6 10,0" fill="#c0c0c0" transform="rotate(-5, 10, 26)"/>
  <circle cx="32" cy="17" r="11" fill="#f5cba7"/>
  <path d="M21 15 Q26 5 32 6 Q38 5 43 15 Q40 9 32 8 Q24 9 21 15Z" fill="#e67e22"/>
  <path d="M21 15 Q23 11 32 10 Q41 11 43 15 Q40 12 32 11 Q24 12 21 15Z" fill="#d35400"/>
  <circle cx="27" cy="16" r="2" fill="white"/>
  <circle cx="37" cy="16" r="2" fill="white"/>
  <circle cx="27" cy="16" r="1.2" fill="#2b2d42"/>
  <circle cx="37" cy="16" r="1.2" fill="#2b2d42"/>
  <path d="M28 21 Q32 23 36 21" stroke="#c0392b" stroke-width="1" fill="none" stroke-linecap="round"/>
  <rect x="22" y="9" width="20" height="3" rx="1" fill="#e67e22"/>
</svg>
